<?xml version="1.0" encoding="utf-8"?>
<!-- Generator: Adobe Illustrator 16.0.0, SVG Export Plug-In . SVG Version: 6.00 Build 0)  -->
<!DOCTYPE svg PUBLIC "-//W3C//DTD SVG 1.1//EN" "http://www.w3.org/Graphics/SVG/1.1/DTD/svg11.dtd">
<svg version="1.1" id="fl3" xmlns="http://www.w3.org/2000/svg" xmlns:xlink="http://www.w3.org/1999/xlink" x="0px" y="0px" width="1033.2px" height="531px" viewBox="0 0 1033.2 531" enable-background="new 0 0 1033.2 531" xml:space="preserve">
  <path fill="#DDDDDD" height="10" d="m57,56l170,-30l316,19l200,-28l192,81l93,218l-558,174l-384,-51l-47,-219l18,-164z"/>
  <path fill="#99CC33" height="40" d="m77,73l147,-26l48,119l-127,67l-87,-7l19,-153z"/>
  <path fill="#0099CC" height="40" d="m63,244l85,11l60,185l-107,-12l-38,-184z"/>
  <path fill="#FFFF00" height="40" d="m182,304l40,132l241,45l-7,-127l-274,-50z"/>
  <path fill="#FF00FF" height="40" d="m473,352l5,122l522,-162l-78,-202l-184,-82l-191,31l23,246l-97,47z"/> 
</svg>
