<?xml version="1.0" encoding="utf-8"?>
<!-- Generator: Adobe Illustrator 15.0.0, SVG Export Plug-In . SVG Version: 6.00 Build 0)  -->
<!DOCTYPE svg PUBLIC "-//W3C//DTD SVG 1.1//EN" "http://www.w3.org/Graphics/SVG/1.1/DTD/svg11.dtd">
<svg version="1.1" xmlns="http://www.w3.org/2000/svg" xmlns:xlink="http://www.w3.org/1999/xlink" x="0px" y="0px" width="1028px"
	 height="680px" viewBox="0 0 1028 680" enable-background="new 0 0 1028 680" xml:space="preserve">
<g id="floor1">
	<polygon id="floor_x5F_1" fill="#D7E3E3" points="171.549,35.392 898.61,49.07 941.749,543.597 125.252,644.608 94.399,618.303 
		84.218,468.894 141.036,53.28 	"/>
	<polygon id="_x31_12" fill="#ACDAD5" points="211.426,151.785 234.305,133.541 289.709,133.541 289.709,119.576 322.397,119.576 
		322.397,61.967 195.522,58.476 170.037,73.605 162.28,132.959 199.791,136.073 	"/>
	<polygon id="_x31_10" fill="#ACDAD5" points="375.12,123.836 407.162,124.814 406.667,177.66 460.342,180.106 460.156,63.162 
		376.695,61.205 	"/>
	<polygon id="_x31_11" fill="#ACDAD5" points="353.48,165.86 387.152,166.687 386.885,196.422 353.067,196.009 	"/>
	<path id="_x31_09" fill="#ACDAD5" d="M512.319,181.158l2.289-118.4l-46.292-0.485l-0.573,115.975
		C467.744,178.247,500.873,177.277,512.319,181.158z"/>
	<path id="_x31_26" fill="#ACDAD5" d="M541.354,189.708l20.666-38.868l3.104-86.811l-42.962-1.446l-2.179,117.676
		C519.984,180.259,524.471,179.098,541.354,189.708z"/>
	<polygon id="_x31_26A" fill="#ACDAD5" points="565.328,204.429 611.664,197.615 609.393,186.259 610.756,147.646 611.664,64.97 
		573.053,64.516 570.461,146.283 552.609,185.35 	"/>
	<polygon id="_x31_31" fill="#ACDAD5" points="660.711,318.412 686.824,315.556 681.52,275.979 692.127,275.162 687.641,235.176 
		687.641,215.592 657.373,213.143 656.148,247.825 658.188,258.025 	"/>
	<path id="_x31_03" fill="#5CBDAC" d="M671.902,438.238l-61.314,7.144c0,0-6.549,2.381-5.357,6.548l14.881,113.701l108.344-13.097
		l-10.119-73.816l-13.098,1.19l-2.381-20.835l-20.24,2.381v-6.548l-8.334,1.191L671.902,438.238z"/>
	<polygon id="_x31_08" fill="#ACDAD5" points="395.06,482.877 479.855,472.444 487.307,514.175 446.321,581.734 408.473,586.95 	"/>
	<path id="_x31_07" fill="#ACDAD5" d="M447.447,392.198l65.688-9.66c0,0,45.402-8.211,57.478,35.26l-96.118,13.04l-4.347-37.674
		l-22.218,3.864L447.447,392.198z"/>
	<polygon id="_x31_04A" fill="#ACDAD5" points="344.471,510.57 385.718,505.602 397.875,590.745 355.868,594.646 	"/>
	<polygon id="_x31_04C" fill="#ACDAD5" points="389.875,396.994 420.297,393.613 427.542,457.846 399.25,463.159 	"/>
	<path id="_x31_02" fill="#5CBDAC" d="M164.875,620.413c0,0-16.286-42.512,32.719-68.432s76.104-9.373,122.234-97.904
		c2.835-7.695,3.199-19.151,9.274-19.556l13.712,163.213L164.875,620.413z"/>
	<path id="_x31_01" fill="#5CBDAC" d="M192.473,384.91l-64.017-6.699l-11.91,85.604l4.839,81.938c0,0,17.493-39.891,64.017-49.94
		c46.524-10.049,54.956-11.335,69.888-36.982l-72.493,8.335L192.473,384.91z"/>
	<path id="_x31_15" fill="#ACDAD5" d="M311.569,289.198l26.083,35.742c0,0-2.898,30.269-19.32,32.523l-4.187-0.967l-1.61,3.864
		l-23.828-0.322v-9.016l-6.762-8.694l-34.776-5.796l2.898-26.083l28.014,3.22L311.569,289.198z"/>
	<polygon id="_x31_14" fill="#ACDAD5" points="299.213,281.478 249.162,213.947 211.813,242.505 205.396,295.588 270.979,303.988 	
		"/>
	<polygon id="_x31_20-121" fill="#5CBDAC" points="201.688,164.371 233,207.948 206.071,227.467 201.219,263.748 143.706,258.008 
		159.96,150.134 191.498,152.593 	"/>
	<path id="_x31_01A" fill="#ACDAD5" d="M328.555,418.643c0,0-4.298,10.128-5.24,13.087c0,0-19.056,55.316-60.49,72.551
		c-39.044,14.102-119.903,40.414-114.724,118.362l-25.215-21.491l-2.126-35.122c0,0,18.215-49.388,62.041-60.355
		c43.825-10.967,67.083-9.145,82.148-42.472c7.76-17.165,13.582-41.971,13.582-41.971S293.097,425.303,328.555,418.643z"/>
</g>
<g id="floor2" display="none">
	<polygon id="floor_x5F_2" display="inline" fill="#E2D9E7" points="172.566,35.392 899.627,49.07 940.385,546.692 126.269,644.608 
		94.527,614.604 87.615,473.599 130.215,116.824 142.052,53.28 	"/>
	<polygon id="_x32_11" display="inline" fill="#D0ACD0" points="364.475,55.899 364.475,111.247 321.613,110.115 295.486,152.981 
		252.621,126.175 179.744,125.121 185.325,72.339 206.135,51.075 	"/>
	<path id="_x32_10" display="inline" fill="#D0ACD0" d="M471.25,59.286l-0.906,141.382c0,0-15.156-1.747-30.085-20.521
		c-7.616-4.6-19.605-10.557-34.836-10.104l1.809-40.938l-36.269-0.834l1.355-71.998L471.25,59.286z"/>
	<polygon id="_x32_09" display="inline" fill="#D0ACD0" points="531.254,60.939 529.781,170.192 531.254,200.957 477,200.957 
		477,59.286 	"/>
	<path id="_x32_12" display="inline" fill="#D0ACD0" d="M172.861,182.472l108.073,12.945c0,0,9.888-29.03,14.552-36.683
		c-7.288-4.557-42.866-26.806-42.866-26.806l-73.551-1.456L172.861,182.472z"/>
	<path id="_x32_13" display="inline" fill="#D0ACD0" d="M166.748,240.374l108.758,13.629c0,0,3.441-46.172,5.429-51.876
		c-7.776-0.93-108.073-12.944-108.073-12.944L166.748,240.374z"/>
	<path id="_x32_14" display="inline" fill="#D0ACD0" d="M160.845,294.613l107.497,13.723c0,0,33.478-2.262,38.908-5.203
		c-1.584-3.054-27.294-11.933-32.422-44.422c-16.313-2.044-108.08-13.544-108.08-13.544L160.845,294.613z"/>
	<path id="_x32_15-A" display="inline" fill="#D0ACD0" d="M154.711,351.731l39.058,4.808l0.905-10.404l114.159,13.725l1.508-10.558
		l14.778,1.809l10.556-7.692c0,0,6.787-20.357-11.159-28.65c-5.731-2.037-17.267-5.882-17.267-5.882l-37.475,5.203l-108.93-13.723
		L154.711,351.731z"/>
	<polygon id="_x32_01A" display="inline" fill="#9667A9" points="145.505,558.079 188.286,553.207 193.415,607.196 404.568,584.245 
		405.831,584.109 385.537,405.722 333.662,411.15 302.293,407.833 299.881,423.519 270.927,420.504 264.292,461.521 
		234.734,466.044 239.861,493.792 187.684,501.031 184.366,484.142 208.796,481.426 206.986,467.856 215.732,416.28 200.048,414.77 
		204.423,384.461 189.492,382.499 191.585,362.141 153.753,357.482 140.935,464.838 	"/>
	<polygon id="_x32_02A" display="inline" fill="#D0ACD0" points="461.909,569.102 448.175,453.193 417.109,456.963 411.831,420.318 
		395.544,422.281 413.178,574.74 	"/>
	<polygon id="_x32_02D" display="inline" fill="#D0ACD0" points="411.712,393.636 442.703,389.716 446.473,424.023 431.393,425.534 
		435.162,451.168 419.026,453.13 	"/>
	<polygon id="_x32_02C" display="inline" fill="#D0ACD0" points="519.288,385.408 555.256,381.111 561.59,439.695 526.959,444.674 	
		"/>
	<polygon id="_x32_05-6" display="inline" fill="#D0ACD0" points="457.762,453.193 504.812,447.84 507.752,469.557 564.078,463.9 
		574.073,557.226 471.496,569.102 	"/>
	<path id="_x32_06A" display="inline" fill="#D0ACD0" d="M657.913,64.214l-2.264,136.742c0,0,89.575-13.346,106.54-40.039
		c0.227-7.013,1.586-92.97,1.586-92.97L657.913,64.214z"/>
	<path id="_x32_07" display="inline" fill="#D0ACD0" d="M596.621,62.581l-1.574,138.376c0,0,41.326,5.054,54.142-0.188
		c-1.134-4.344,1.056-136.555,1.056-136.555L596.621,62.581z"/>
	<path id="_x32_08" display="inline" fill="#D0ACD0" d="M536.048,60.939v140.018c0,0,38.737,4.282,52.298-0.913l1.565-137.463
		L536.048,60.939z"/>
	<path id="_x32_05A" display="inline" fill="#D0ACD0" d="M697.565,230.35l3.278,23.978l66.28-8.031l4.976,42.112l-104.808,11.31
		c0,0-4.525-34.534,0-47.654c1.357-3.619,12.517-19.453,29.405-22.47C698.207,229.444,697.565,230.35,697.565,230.35z"/>
	<path id="_x32_02" display="inline" fill="#D0ACD0" d="M667.292,306.43c0,0,7.313,34.459,13.873,38.869
		c4.186,0.34,97.041-10.292,97.041-10.292L772.1,295.12L667.292,306.43z"/>
	<polygon id="_x32_01" display="inline" fill="#9667A9" points="567.327,381.111 694.542,365.728 746.34,407.048 801.376,401.92 
		804.025,419.111 890.973,409.125 899.528,520 585.69,557.226 	"/>
</g>
<g id="floor3" display="none">
	<polygon id="floor_x5F_3" display="inline" fill="#E6ECEC" points="170.279,33.402 899.627,48.07 942.766,542.597 132,646.598 
		95.415,617.303 85.234,465 141.985,54.38 	"/>
	<path id="_x33_12" display="inline" fill="#2EA7E0" d="M240.732,188.556l42.382,3.853c0,0,0.427-44.522,27.825-58.651
		c1.712-8.989,3.756-68.65,3.756-68.65l-106.928-2.842l-24.83,18.41l-7.696,51.309l41.515,2.203L240.732,188.556z"/>
	<path id="_x33_11" display="inline" fill="#2EA7E0" d="M477.004,67.578l-1.254,138.698c0,0-20.006-4.02-28.568-23.427
		c-13.415-7.993-15.982-11.131-38.814-11.131c-0.57-14.842,1.141-38.815,1.141-38.815l-93.042-2.342l3.33-65.453L477.004,67.578z"/>
	<polygon id="_x33_10" display="inline" fill="#2EA7E0" points="534.074,68.601 537.641,209.247 483.125,206.229 483.125,67.578 	
		"/>
	<polygon id="_x33_09" display="inline" fill="#2EA7E0" points="595.305,70.041 595.727,207.107 543.496,209.247 541.217,68.601 	
		"/>
	<path id="_x33_08" display="inline" fill="#2EA7E0" d="M705.443,71.959l1.188,27.267l-53.086,69.35l3.428,29.969
		c0,0-47.031,8.313-54.213,8.608c1.029-4.339,0.707-137.112,0.707-137.112L705.443,71.959z"/>
	<path id="_x33_07" display="inline" fill="#2EA7E0" d="M746.064,166.458l145.645,3.441l-8.178-93.741l-168.904-3.178l1.186,27.267
		l-53.086,69.351l3.428,29.969l62.787-11.703l-2.141-10.702C726.801,177.161,743.926,175.876,746.064,166.458z"/>
	<path id="_x33_06" display="inline" fill="#2EA7E0" d="M696.443,209.247l2.783,16.981l68.07-8.491l5.994,41.24l-109.166,13.914
		c0,0-13.914-47.092,4.707-58.436C678.25,212.743,696.443,209.247,696.443,209.247z"/>
	<path id="_x33_05" display="inline" fill="#2EA7E0" d="M710.646,326.411l-2.283-15.697l72.203-9.989l-7.275-35.748l-109.166,13.914
		c0,0,3.564,44.238,11.699,47.52c8.135,3.281,28.402,0.569,34.535-1.712"/>
	<path id="_x33_04" display="inline" fill="#87CFE7" d="M824.881,363.014l63.064-9.443l15.082,172.895l-197.029,25.273
		l-27.387-157.189c0.393,2.268,22.549,18.834,74.775,9.133c52.23-9.703,73.635-22.832,73.635-22.832L824.881,363.014z"/>
	<path id="_x33_03" display="inline" fill="#2EA7E0" d="M560.408,392.838l25.904,173.076l110.504-14.176l-27.385-157.189
		c0,0-19.121-15.414-26.541-14.84C635.469,380.281,560.408,392.838,560.408,392.838z"/>
	<polygon id="_x33_02" display="inline" fill="#2EA7E0" points="471.193,402.543 478.043,469.037 452.642,472.465 468.176,580.02 
		578.15,565.914 552.244,392.838 	"/>
	<path id="_x33_01" display="inline" fill="#87CFE7" d="M124.973,451.572l8.934,140.453l32.106,25.709l67.166-8.615l-8.744-80.43
		l114.304-17.125l7.749,80.596l113.527-12.141l-24.524-172.484c0,0-60.791,20.121-84.337-3.426
		c-8.99-5.994-42.383-13.982-52.229-11.271c-1.284,13.412-2.996,19.406-2.996,19.406l-32.537-2.568l-0.855,9.42l-11.129,8.561
		l-73.634-4.709l-6.422,34.252L124.973,451.572z"/>
	<path id="_x33_14" display="inline" fill="#2EA7E0" d="M156.16,243.208l115.595,10.938c0,0,0.428,27.827,25.258,35.533
		c24.831,7.705,47.09,30.823,34.676,39.813c-10.987,3.853-29.254,10.703-45.522,5.281c-9.417,5.422-10.559,5.707-10.559,5.707
		l-0.572,5.708l-89.616-8.276l-6.279,35.961l30.253,2.568l-4.198,26.074l-68.512-5.484L156.16,243.208z"/>
	<polygon id="_x33_13" display="inline" fill="#2EA7E0" points="279.033,197.509 271.755,248.026 156.16,237.087 171.16,137.084 
		212.676,139.288 236.651,193.657 	"/>
	<path id="_x33_15" display="inline" fill="#2EA7E0" d="M303.805,248.061l43.666,31.824c0,0,33.392,5.849,45.807-27.685
		c-20.12,1.854-20.12,1.854-20.12,1.854S303.805,247.063,303.805,248.061z"/>
	<path id="_x33_16" display="inline" fill="#2EA7E0" d="M435.518,258.978c0,0,5.994-22.189,37.958-23.331
		c31.966-1.142,56.224,2.283,56.224,2.283l17.982,18.266l-13.748,13.414l-51.896,5.994c0,0-23.117-13.647-21.976-20.096
		C455.781,255.911,435.518,258.978,435.518,258.978z"/>
</g>
<g id="floor4" display="none">
	<polygon id="floor_x5F_4" display="inline" fill="#F7E6F1" points="169.597,34.787 896.482,49.675 937.24,547.297 119.854,645.213 
		91.429,614.065 90.76,451.422 134.395,59.212 	"/>
	<path id="_x34_13" display="inline" fill="#F3ACC7" d="M261.534,138.051l-5.232,40.326l47.433,7.214c0,0,12.24-11.875,20.197-13.74
		c0.612-8.701,7.623-102.431,7.623-102.431l-133.206-2.733l-32.334,21.318l-5.23,44.39L261.534,138.051z"/>
	<path id="_x34_14" display="inline" fill="#F3ACC7" d="M149.015,234.699l132.552,18.934c0,0,0.409-50.092,11.715-59.042
		c-13.048-1.81-45.794-6.214-45.794-6.214l4.941-40.326l-93.145-6.656L149.015,234.699z"/>
	<path id="_x34_15" display="inline" fill="#F3ACC7" d="M335.319,343.115l-48.551-4.661l-10.249,9.382l-13.449-1.302l-1.734,14.294
		l-71.093-9.011l-6.067,49.408l-54.081-5.436l17.92-152.091l133.552,18.934c0,0-3.757,22.996,16.762,30.143
		c3.178,1.553,38.724,17.092,35.257,51.272"/>
	<path id="_x34_12" display="inline" fill="#F3ACC7" d="M484.212,71.939l-1.158,153.359c0,0-45.083,6.837-71.959-46.612
		c5.49-0.621,9.538-0.31,9.538-0.31v-37.912l-67.625-2.175v-14.295l-16.223-0.672l3.771-53.771L484.212,71.939z"/>
	<path id="_x34_11" display="inline" fill="#F3ACC7" d="M539.456,73.372v147.577c0,0-37.553,6.836-49.401,4.35
		c0.069-9.005,3.432-152.915,3.432-152.915L539.456,73.372z"/>
	<path id="_x34_10" display="inline" fill="#F3ACC7" d="M594.024,213.18V74.761l-46.247-1.389l-2.321,147.577
		C545.456,220.949,575.24,219.395,594.024,213.18z"/>
	<path id="_x34_09" display="inline" fill="#F3ACC7" d="M699.606,75.781l-2.368,67.481l-47.396,35.245l0.289,30.322
		c0,0-41.668,2.858-47.106,4.35c-0.121-9.325,0-138.419,0-138.419L699.606,75.781z"/>
	<polygon id="_x34_43A" display="inline" fill="#F3ACC7" points="739.628,181.174 883.94,185.566 879.272,79.732 707.606,75.781 
		705.238,143.263 	"/>
	<path id="_x34_07" display="inline" fill="#F3ACC7" d="M669.686,228.949l2.601,16.158l60.401-6.215l6.356,39.775l-101.726,10.254
		l-3.18-29.986c0,0,5.779-17.4,17.052-25.093C663.617,228.949,669.686,228.949,669.686,228.949z"/>
	<polygon id="_x34_06" display="inline" fill="#F3ACC7" points="642.81,333.591 745.691,323.024 739.044,286.668 637.318,296.922 	
		"/>
	<polygon id="_x34_05" display="inline" fill="#F3ACC7" points="684.674,464.481 737.85,458.266 730.193,404.041 813.856,396.118 
		811.256,371.878 888.233,364.85 901.627,528.379 698.53,552.708 	"/>
	<path id="_x34_04" display="inline" fill="#F3ACC7" d="M611.688,388.659l19.089,170.105l56.754-6.057l-23.392-157.987
		c0,0-0.793-12.121-15.676-11.188C633.578,386.33,611.688,388.659,611.688,388.659z"/>
	<polygon id="_x34_03" display="inline" fill="#F3ACC7" points="552.703,397.05 573.242,565.201 620.776,559.632 601.688,388.659 	
		"/>
	<polygon id="_x34_02" display="inline" fill="#F3ACC7" points="456.928,577.935 561.761,565.527 542.703,397.05 464.963,407.926 
		468.72,471.007 447.623,472.803 	"/>
	<path id="_x34_01" display="inline" fill="#E9508D" d="M431.699,408.703l15.229,169.231l-104.744,12.548l-6.865-82.031
		l-107.361,12.585l7.003,82.292l-82.192,9.985l-25.777-28.894l-0.619-139.206l55.202,4.636l4.767-35.552l71.527,8.855l12.137-8.855
		l6.503-28.436l52.019,23.772c0,0,24.275,14.451,48.551,6.061C400.921,411.966,431.699,408.703,431.699,408.703z"/>
	<path id="_x34_15_1_" display="inline" fill="#F3ACC7" d="M320.555,261.634c0,0,26.83,45.681,58.259,26.569
		c10.187-13.75,22.323-31.696,22.323-31.696s-3.25-36.823-25.792-46.379c-1.95,21.908-4.117,58.032-4.117,58.032L320.555,261.634z"
		/>
</g>
<g id="floor5" display="none">
	<polygon id="floor5_1_" display="inline" fill="#EEE3D9" points="171.436,36.455 900.496,50.134 910.199,182.076 910.199,182.076 
		924.886,379.274 924.886,379.274 941.635,551.187 123.904,643.545 94.413,615.668 86.365,451.555 140.211,59.539 	"/>
	<polygon id="_x35_14" display="inline" fill="#D0927E" points="215.805,68.475 355.576,74.33 351.765,108.988 303.309,108.988 
		296.231,158.522 272.275,158.522 210.208,125.5 188.43,126.069 197.142,87.923 	"/>
	<path id="_x35_13" display="inline" fill="#D0927E" d="M460.241,75.938l2.882,127.563c3.655,0-28.256-24.365-28.856-25.621
		c-17.423-7.401-29.128-11.387-35.934-10.248c0.34-10.035,1.361-35.655,1.361-35.655l-40.222-2.135l5.104-55.511L460.241,75.938z"/>
	<path id="_x35_12" display="inline" fill="#D0927E" d="M521.556,78.753l3.106,131.01c0,0-50.511-2.492-52.478-7.936
		c0.232-6.341-2.943-125.89-2.943-125.89L521.556,78.753z"/>
	<polygon id="_x35_11" display="inline" fill="#D0927E" points="582.215,78.933 585.112,212.894 533.662,209.763 530.556,78.753 	
		"/>
	<path id="_x35_10" display="inline" fill="#D0927E" d="M645.49,80.418l0.8,132.476c0,0-48.414,1.414-51.157-1.143
		c0.061-3.401-2.918-132.818-2.918-132.818L645.49,80.418z"/>
	<path id="_x35_09" display="inline" fill="#D0927E" d="M869.502,85.076l4.975,92.368l-137.791,3.282l-12.522,18.22
		c0,0-12.795-2.848-25.045,7.117c-13.067,7.686-43.828,6.832-43.828,6.832l-0.8-132.476L869.502,85.076z"/>
	<path id="_x35_08" display="inline" fill="#D0927E" d="M681.68,302.807l105.896-10.889l-7.35-41.922l-66.696,7.351l-2.449-14.156
		c0,0-15.518,0.544-25.861,7.35c-7.078,10.617-7.895,13.339-6.806,26.134S681.68,302.807,681.68,302.807z"/>
	<polygon id="_x35_07" display="inline" fill="#D0927E" points="687.669,349.375 793.836,338.52 787.575,300.918 681.504,310.703 	
		"/>
	<polygon id="_x35_06A" display="inline" fill="#D0927E" points="735.639,420.147 829.147,411.981 825.473,385.03 880.903,381.821 
		898.2,531.247 697.282,553.644 694.313,511.614 748.296,505.081 	"/>
	<path id="_x35_04" display="inline" fill="#D0927E" d="M567.345,446.281l86.16-8.576l6.941,61.251c0,0,1.116,13.917,17.57,12.658
		c5.296,0,5.296-1.36,5.296-1.36l4.97,43.39l-109.25,11.851L567.345,446.281z"/>
	<path id="_x35_03" display="inline" fill="#D0927E" d="M562.718,394.182l4.718,43.931l86.069-8.407c0,0,4.764-42.875-30.081-41.785
		C588.307,393.093,562.718,394.182,562.718,394.182z"/>
	<polygon id="_x35_02" display="inline" fill="#D0927E" points="468.322,409.804 550.775,402.13 566.032,566.363 462.266,578.026 
		451.717,474.32 474.311,471.327 	"/>
	<path id="_x35_01A" display="inline" fill="#E1803B" d="M126.8,444.647l83.301-0.791l-2.608-28.201l49.976-1.732l8.167-8.717
		l2.041-11.076l26.95,6.951l5.717-25.442c0,0,51.859,12.967,64.109,26.491c8.983,5.359,26.133,15.159,42.059,13.117
		c15.925-2.041,26.542-3.675,26.542-3.675l18.213,166.07l-291.837,33.883l-25.634-24.23L126.8,444.647z"/>
	<path id="_x35_15" display="inline" fill="#D0927E" d="M187.43,144.551l-19.463,94.87l24.908,2.858l-20.825,98.408l82.484,8.168
		l5.717-28.176l8.575-10.208l29.4,4.899l12.25-13.475c0,0-26.542-37.976-9.392-92.693c-1.634-18.375-6.941-33.62-6.941-33.62
		h-21.507l-63.429-31.578L187.43,144.551z"/>
	<path id="_x35_16" display="inline" fill="#D0927E" d="M358.276,264.707c0,0-1.088,50.907,41.106,31.306
		c8.438-5.989,17.15-14.155,10.889-28.583C395.299,267.701,358.276,264.707,358.276,264.707z"/>
</g>
<g id="floor6" display="none">
	<polygon id="floor_x5F_6" display="inline" fill="#F3EFE9" points="173.877,34.195 900.024,54.74 942.766,544.793 126.269,645.805 
		95.181,616.049 85.234,470.09 143.882,53.847 	"/>
	<polygon id="_x36_10" display="inline" fill="#F6B969" points="202.334,55.104 325.499,58.28 323.781,90.044 284.826,90.044 
		282.534,128.797 353.283,130.385 393.098,198.36 337.243,211.702 338.962,176.126 278.525,173.267 252.459,156.75 178.56,148.809 
		191.736,63.045 	"/>
	<path id="_x36_11" display="inline" fill="#F6B969" d="M145.081,338.466l93.459,9.211l7.441-29.223l62.504,6.988
		c0,0,22.025-14.93,5.357-39.07c-13.989-7.941-51.194-18.105-66.374-41.929c-2.381-9.212,8.1-66.031,15.51-67.321
		c-8.431-5.141-11.687-6.5-11.687-6.5l-75.555-7.813L145.081,338.466z"/>
	<path id="_x36_01" display="inline" fill="#F6B969" d="M124.5,599.287l29.046,30.564l191.634-30.564
		c0.905,12.557-15.337-182.215-12.247-186.395c-23.566-7.623-31.013-17.422-34.733-25.045c-3.722-7.625-20.26-7.148-20.26-7.148
		l-4.548,19.059l-26.049-3.334l-1.653,10.959l-10.75,8.1l-72.394,6.996L167.5,449l-56.5,7L124.5,599.287z"/>
	<polygon id="_x36_02" display="inline" fill="#F6B969" points="499.831,577.332 483.402,416.912 455.287,421.199 452.807,395.471 
		343.217,412.893 358.475,599.287 	"/>
	<polygon id="_x36_03" display="inline" fill="#F6B969" points="681.362,545.5 655.894,373.035 605.864,369.693 469.008,384.471 
		471.734,409.215 493.402,405.912 509.5,574.5 	"/>
	<path id="_x36_04" display="inline" fill="#F6B969" d="M729.807,392.57c0,0,32.663,7.623,40.52,7.623
		c7.855,0,43.413-3.811,43.413-3.811l6.203,48.598l69.039-12.533l6.088,80.438l-204.707,29.523l-11.831-78.678l60.785-10.172
		L729.807,392.57z"/>
	<path id="_x36_05" display="inline" fill="#F6B969" d="M713.771,189.638l-47.325,50.505c0,0,25.447,41.929,23.662,60.512
		c11.607-0.477,54.914-5.241,54.914-5.241l2.233,13.817l61.165-6.671l-14.733-93.387l-77.238,9.529L713.771,189.638z"/>
	<path id="_x36_06" display="inline" fill="#F6B969" d="M544.095,62.581v58.545h54.566l3.437,70.041
		c0,0,50.268,11.911,59.291,27.158c10.742-7.623,55.853-54.794,55.853-54.794l11.173-2.382l12.46-21.441L885.5,140l-2.441-70.809
		L544.095,62.581z"/>
	<polygon id="_x36_09" display="inline" fill="#F6B969" points="334.499,57.28 518.244,60.939 516.097,143.759 460.243,139.708 
		463.681,189.261 415.989,196.885 371.736,117.791 392.358,117.791 392.788,93.015 332.781,89.044 	"/>
	<polygon id="_x36_08" display="inline" fill="#F6B969" points="528.043,193.926 473.41,197.261 470.124,147.708 523.524,151.759 	
		"/>
	<path id="_x36_07" display="inline" fill="#F6B969" d="M592.637,199.167c0,0-47.729-5.796-57.594-5.241
		c-1.359-11.669-8.036-58.129-2.68-64.8c8.484,0,56.702,0,56.702,0L592.637,199.167z"/>
</g>
<g id="floor7" display="none">
	<polygon id="floor_x5F_7" display="inline" fill="#C4E1DD" points="172.566,35.392 899.779,50.936 940.385,546.692 
		126.269,644.608 94.527,614.604 87.615,453.13 142.052,53.28 	"/>
	<path id="_x37_01" display="inline" fill="#53C1E5" d="M125.188,380.951l61.214,8.496l2.662,35.289h41.005l11.183-41.518
		l33.018,3.461c0,0,40.471-5.535,46.328-32.523c11.184-8.996,20.235-17.3,26.627-13.148c1.065,8.996,6.39,83.729,6.39,83.729
		l-54.317,60.203l4.938,89.07l-145.521,22.744l-27.531-33.816L125.188,380.951z"/>
	<path id="_x37_07" display="inline" fill="#53C1E5" d="M320.88,83.247l152.304,10.38l2.661,41.519c0,0-84.671,0.692-103.309,43.595
		c-6.925,20.067-19.705,60.896-17.574,74.388c-2.131,10.034-4.261,33.562-34.082,29.41c-8.519,2.075-19.169,4.497-19.169,4.497
		l2.663-14.532l-10.917-2.767L320.88,83.247z"/>
	<path id="_x37_06" display="inline" fill="#53C1E5" d="M676.159,89.994l3.596,42.038l-30.354,7.266c0,0-18.374,1.038-34.348-11.418
		c-13.182-4.152-24.362-2.076-57.512,2.596c-33.151,4.671-70.696,4.671-70.696,4.671l-2.661-41.519l148.442,5.19L676.159,89.994z"/>
	<polygon id="_x37_05" display="inline" fill="#53C1E5" points="729.5,332.359 743.48,446.02 687.566,455.879 691.262,522.576 
		902.813,489.514 897.43,404.107 776.231,420.07 765.007,327.688 	"/>
	<path id="_x37_04" display="inline" fill="#53C1E5" d="M572.745,321.98l18.631,216.678l87.241-13.635L660.611,321.98
		c0,0-2.397-14.531-23.564-9.862C616.677,316.272,572.745,321.98,572.745,321.98z"/>
	<polygon id="_x37_02" display="inline" fill="#53C1E5" points="316.234,577.125 455.512,555.359 440.301,333.398 359.224,344.124 
		365.613,427.854 311.296,488.057 	"/>
	<polygon id="_x37_03" display="inline" fill="#53C1E5" points="505.283,327.416 558.37,329.258 576.376,538.658 469.512,555.359 
		460.731,441.092 513.611,434.916 	"/>
</g>
<g id="floor8" display="none">
	<path id="floor_x5F_8" display="inline" fill="#FDF7E3" d="M131,644.608l810.749-101.012L898.61,49.07l-729.465-7.918
		c0,0-39.291,5.648-34.791,70.648C128,196.422,93.833,618.633,93.833,618.633L131,644.608z"/>
	<polygon id="_x38_18" display="inline" fill="#F4CE20" points="527.889,348.694 646.084,340 652.361,443.887 490.837,455.841 
		483,386.665 498.06,384.49 496.04,370.912 529.03,367.639 	"/>
</g>
</svg>
